<svg width="24" height="24" viewBox="0 0 24 24" fill="none" xmlns="http://www.w3.org/2000/svg">
    <path
        d="M17 4.1748L15.3496 5.8252C15.5495 6.14176 15.7042 6.48308 15.8125 6.84961C15.9208 7.21628 15.9746 7.6 15.9746 8V8.33789C15.9746 8.44606 15.9581 8.55832 15.9248 8.6748C16.1081 8.85814 16.2879 9.06647 16.4629 9.2998C16.6379 9.53309 16.7915 9.76672 16.9248 10L19.2998 8.65039L20.2998 10.375L17.7002 11.8496C17.7502 12.0328 17.7962 12.2205 17.8379 12.4121C17.8796 12.6038 17.9169 12.8 17.9502 13H21V15H17.9502C17.9169 15.2 17.8829 15.3962 17.8496 15.5879C17.8163 15.7794 17.7746 15.9672 17.7246 16.1504L20.2998 17.6504L19.2998 19.375L16.9248 18C16.3915 18.9 15.7039 19.6248 14.8623 20.1748C14.0206 20.7248 13.0666 21 12 21C10.9334 21 9.97935 20.7248 9.1377 20.1748C8.29606 19.6248 7.60852 18.9 7.0752 18L4.7002 19.3496L3.7002 17.625L6.27539 16.125C6.2254 15.9417 6.18372 15.7541 6.15039 15.5625C6.11706 15.3708 6.08314 15.1833 6.0498 15H3V13H6.0498C6.08314 12.8 6.11706 12.6038 6.15039 12.4121C6.18371 12.2206 6.22543 12.0328 6.27539 11.8496L3.7002 10.3496L4.7002 8.625L7.0498 10C7.18314 9.76667 7.3377 9.5375 7.5127 9.3125C7.68761 9.08762 7.86657 8.88345 8.0498 8.7002C8.01647 8.58353 8 8.46628 8 8.34961V8C8 7.6 8.05814 7.21628 8.1748 6.84961C8.29146 6.48306 8.45044 6.14178 8.65039 5.8252L7 4.1748L8.40039 2.75L10.1504 4.4502C10.4336 4.30031 10.729 4.18728 11.0371 4.1123C11.3454 4.0373 11.6667 4 12 4C12.3332 4 12.6581 4.04173 12.9746 4.125C13.2912 4.20832 13.5917 4.32465 13.875 4.47461L15.5996 2.75L17 4.1748ZM12 9C10.7001 9 9.70872 9.53752 9.02539 10.6123C8.34206 11.6873 8 12.8167 8 14C8 15.3 8.36293 16.458 9.08789 17.4746C9.81289 18.4913 10.7833 19 12 19C13.2167 19 14.1871 18.4913 14.9121 17.4746C15.6371 16.458 16 15.3 16 14C16 12.8333 15.6623 11.7083 14.9873 10.625C14.3123 9.54173 13.3166 9 12 9ZM13 17H11V11H13V17ZM12 6C11.5667 6 11.1752 6.12938 10.8252 6.3877C10.4753 6.64598 10.233 6.96638 10.0996 7.34961C10.3829 7.23294 10.6877 7.14622 11.0127 7.08789C11.3377 7.02957 11.6667 7 12 7C12.3333 7 12.6546 7.0252 12.9629 7.0752C13.271 7.12519 13.5665 7.20864 13.8496 7.3252C13.7163 6.94196 13.4836 6.62497 13.1504 6.375C12.8171 6.125 12.4333 6 12 6Z"
        fill="url(#paint0_linear_346_190)" />
    <defs>
        <linearGradient id="paint0_linear_346_190" x1="0" y1="1.9792e-06" x2="24" y2="1.9792e-06"
            gradientUnits="userSpaceOnUse">
            <stop stop-color="#CE4E72" />
            <stop offset="0.0909091" stop-color="#CE4E72" />
            <stop offset="0.181818" stop-color="#CD4D74" />
            <stop offset="0.272727" stop-color="#CB4C79" />
            <stop offset="0.363636" stop-color="#C64B82" />
            <stop offset="0.454545" stop-color="#BB4C90" />
            <stop offset="0.545455" stop-color="#A650A1" />
            <stop offset="0.636364" stop-color="#9355AB" />
            <stop offset="0.727273" stop-color="#8658AF" />
            <stop offset="0.818182" stop-color="#7E59B1" />
            <stop offset="0.909091" stop-color="#7B5AB2" />
            <stop offset="1" stop-color="#7B5AB2" />
        </linearGradient>
    </defs>
</svg>
